<svg width="12" height="14" viewBox="0 0 12 14" fill="none" xmlns="http://www.w3.org/2000/svg">
<path d="M10.1818 1.27273H7.51864C7.25773 0.534545 6.55773 0 5.72727 0C4.89682 0 4.19682 0.534545 3.93591 1.27273H1.27273C0.569545 1.27273 0 1.84227 0 2.54545V12.7273C0 13.4305 0.569545 14 1.27273 14H10.1818C10.885 14 11.4545 13.4305 11.4545 12.7273V2.54545C11.4545 1.84227 10.885 1.27273 10.1818 1.27273ZM5.72727 1.27273C6.07727 1.27273 6.36364 1.55591 6.36364 1.90909C6.36364 2.26227 6.07727 2.54545 5.72727 2.54545C5.37727 2.54545 5.09091 2.26227 5.09091 1.90909C5.09091 1.55591 5.37727 1.27273 5.72727 1.27273ZM10.1818 12.7273H1.27273V2.54545H2.54545V4.45455H8.90909V2.54545H10.1818V12.7273Z" fill="black"/>
</svg>
