<svg width="107" height="98" viewBox="0 0 107 98" fill="none" xmlns="http://www.w3.org/2000/svg">
<path d="M9.36669 70.4446C9.70614 70.4446 10.0476 70.4573 10.3914 70.4825C10.7349 70.508 11.0468 70.5802 11.3266 70.699C11.6066 70.8181 11.8337 70.9983 12.0075 71.2403C12.1816 71.4823 12.2684 71.8196 12.2684 72.2525C12.2684 72.6771 12.1816 73.0104 12.0075 73.2523C11.8337 73.4943 11.6066 73.6746 11.3266 73.7934C11.0468 73.9122 10.7349 73.9867 10.3914 74.0162C10.0476 74.0461 9.70614 74.0609 9.36669 74.0609H8.06861V85.3688C8.06861 85.7336 8.05821 86.0904 8.03674 86.4384C8.01561 86.7864 7.9455 87.0962 7.82677 87.3681C7.70802 87.6396 7.51717 87.858 7.2542 88.0238C6.99123 88.1893 6.6179 88.2719 6.13422 88.2719C5.65054 88.2719 5.27721 88.1893 5.01424 88.0238C4.75127 87.858 4.56041 87.6396 4.44167 87.3681C4.32293 87.0962 4.25283 86.7864 4.2317 86.4384C4.21023 86.0904 4.19983 85.7336 4.19983 85.3688V74.0609H2.90175C2.5623 74.0609 2.22084 74.0461 1.87703 74.0162C1.53355 73.9867 1.22161 73.9122 0.941868 73.7934C0.66179 73.6746 0.434708 73.4943 0.260959 73.2523C0.0868746 73.0104 0 72.6771 0 72.2525C0 71.8196 0.0868746 71.4823 0.260959 71.2403C0.434708 70.9983 0.66179 70.8181 0.941868 70.699C1.22161 70.5802 1.53355 70.508 1.87703 70.4825C2.22084 70.4573 2.5623 70.4446 2.90175 70.4446H9.36669Z" fill="#00FFEB"/>
<path d="M17.6033 75.4872C17.6033 74.672 17.7224 73.9783 17.9599 73.405C18.1974 72.8321 18.5006 72.3546 18.8699 71.9726C19.2389 71.5904 19.6461 71.2913 20.0915 71.0748C20.5369 70.8584 20.9696 70.6949 21.3896 70.5845C21.8095 70.4741 22.1892 70.4063 22.5287 70.3808C22.8681 70.3553 23.1184 70.3425 23.2797 70.3425H23.7124C23.8734 70.3425 24.1236 70.3553 24.4631 70.3808C24.8025 70.4063 25.1802 70.4741 25.5958 70.5845C26.0114 70.6949 26.4421 70.8584 26.8875 71.0748C27.333 71.2913 27.7361 71.5904 28.0967 71.9726C28.4573 72.3546 28.7541 72.8321 28.9876 73.405C29.2207 73.9783 29.3374 74.672 29.3374 75.4872V83.102C29.3374 83.9424 29.2207 84.6556 28.9876 85.2412C28.7541 85.8272 28.4573 86.3152 28.0967 86.7058C27.7361 87.0962 27.333 87.4039 26.8875 87.6288C26.4421 87.854 26.0114 88.0215 25.5958 88.1319C25.1802 88.2423 24.8025 88.3101 24.4631 88.3356C24.1236 88.3611 23.8734 88.3739 23.7124 88.3739H23.2797C23.1184 88.3739 22.8681 88.3611 22.5287 88.3356C22.1892 88.3101 21.8095 88.2423 21.3896 88.1319C20.9696 88.0215 20.5369 87.854 20.0915 87.6288C19.6461 87.4039 19.2389 87.0962 18.8699 86.7058C18.5006 86.3152 18.1974 85.8272 17.9599 85.2412C17.7224 84.6556 17.6033 83.9424 17.6033 83.102V75.4872ZM21.8287 83.586C21.8458 83.9001 21.9179 84.176 22.045 84.4136C22.1554 84.6257 22.3231 84.817 22.5478 84.9865C22.7725 85.1563 23.0929 85.2412 23.5088 85.2412C23.916 85.2412 24.2299 85.1563 24.4503 84.9865C24.671 84.817 24.8364 84.6257 24.9468 84.4136C25.0655 84.176 25.1376 83.9001 25.1631 83.586V75.2835C25.1376 74.9777 25.0655 74.7019 24.9468 74.4555C24.8364 74.2518 24.671 74.0628 24.4503 73.889C24.2299 73.7148 23.916 73.6279 23.5088 73.6279C23.0929 73.6279 22.7725 73.7148 22.5478 73.889C22.3231 74.0628 22.1554 74.2518 22.045 74.4555C21.9179 74.7019 21.8458 74.9777 21.8287 75.2835V83.586Z" fill="#00FFEB"/>
<path d="M46.2029 83H46.5081V72.4311C46.5081 72.1592 46.5252 71.9025 46.5591 71.6605C46.593 71.4185 46.6674 71.2084 46.7818 71.0302C46.8965 70.852 47.0663 70.7097 47.291 70.6037C47.5157 70.4976 47.8233 70.4446 48.2137 70.4446C48.6464 70.4446 48.9879 70.4976 49.2381 70.6037C49.4884 70.7097 49.6772 70.852 49.8043 71.0302C49.9318 71.2084 50.0123 71.4185 50.0462 71.6605C50.08 71.9025 50.0971 72.1592 50.0971 72.4311V85.3433C50.0971 85.7168 50.0864 86.0776 50.0653 86.4256C50.0442 86.7737 49.9764 87.0858 49.8617 87.3617C49.7473 87.6375 49.5605 87.858 49.3019 88.0238C49.0429 88.1893 48.6803 88.2719 48.2137 88.2719H46.5336C46.1348 88.2719 45.8021 88.1933 45.5347 88.0366C45.2674 87.8795 45.0447 87.6882 44.8666 87.4634C44.6884 87.2385 44.5462 87.0029 44.4402 86.7566C44.3342 86.5105 44.2514 86.3025 44.192 86.1326L40.3484 75.7164H40.0432V86.2853C40.0432 86.5572 40.0261 86.8139 39.9922 87.0559C39.9583 87.2979 39.8842 87.508 39.7695 87.6862C39.6551 87.8644 39.4854 88.0067 39.2603 88.1128C39.0356 88.2188 38.728 88.2719 38.3379 88.2719C37.8965 88.2719 37.5486 88.2188 37.294 88.1128C37.0398 88.0067 36.8486 87.8644 36.7215 87.6862C36.5943 87.508 36.5135 87.2979 36.4796 87.0559C36.4458 86.8139 36.4286 86.5572 36.4286 86.2853V73.3732C36.4286 73.0084 36.4394 72.6496 36.4605 72.2972C36.4816 71.9448 36.5517 71.631 36.6705 71.3548C36.7892 71.0789 36.9781 70.8584 37.237 70.6926C37.4956 70.5271 37.8626 70.4446 38.3379 70.4446H40.0177C40.442 70.4446 40.7875 70.5271 41.0548 70.6926C41.3221 70.8584 41.5405 71.0386 41.7102 71.234C41.8971 71.4632 42.0453 71.7263 42.1557 72.0233L46.2029 83Z" fill="#00FFEB"/>
<path d="M57.9011 73.3732C57.9011 73.0084 57.9202 72.6516 57.9585 72.3036C57.9967 71.9555 58.0856 71.6434 58.2258 71.3675C58.3657 71.0916 58.5757 70.8688 58.8557 70.699C59.1355 70.5295 59.5216 70.4446 60.0136 70.4446C60.506 70.4446 60.8918 70.5295 61.1718 70.699C61.4519 70.8688 61.6619 71.0916 61.8018 71.3675C61.942 71.6434 62.0309 71.9555 62.0691 72.3036C62.1073 72.6516 62.1264 73.0084 62.1264 73.3732V85.3433C62.1264 85.7168 62.1093 86.0776 62.0755 86.4256C62.0416 86.7737 61.9547 87.0858 61.8145 87.3617C61.6746 87.6375 61.4626 87.858 61.1782 88.0238C60.8941 88.1893 60.506 88.2719 60.0136 88.2719C59.5216 88.2719 59.1355 88.1893 58.8557 88.0238C58.5757 87.858 58.3657 87.6375 58.2258 87.3617C58.0856 87.0858 57.9967 86.7737 57.9585 86.4256C57.9202 86.0776 57.9011 85.7168 57.9011 85.3433V73.3732Z" fill="#00FFEB"/>
<path d="M69.9558 73.3477C69.9558 72.9829 69.975 72.6261 70.0132 72.2781C70.0511 71.93 70.1403 71.6202 70.2802 71.3484C70.4204 71.0769 70.6304 70.8584 70.9101 70.6926C71.1902 70.5271 71.5763 70.4446 72.0683 70.4446C72.5604 70.4446 72.9485 70.5271 73.2329 70.6926C73.517 70.8584 73.7294 71.0769 73.8692 71.3484C74.0091 71.6202 74.0963 71.93 74.1302 72.2781C74.1641 72.6261 74.1812 72.9829 74.1812 73.3477V83.3823C74.2063 83.7558 74.2828 84.0867 74.4103 84.3753C74.4609 84.5029 74.529 84.6257 74.6139 84.7449C74.6987 84.8637 74.7984 84.9697 74.9127 85.063C75.0274 85.1563 75.163 85.2308 75.3199 85.2859C75.4769 85.3409 75.6574 85.3688 75.861 85.3688C76.0646 85.3688 76.2471 85.3409 76.4081 85.2859C76.5694 85.2308 76.7073 85.1563 76.822 85.063C76.9363 84.9697 77.036 84.8637 77.1208 84.7449C77.2057 84.6257 77.2734 84.5029 77.3244 84.3753C77.4519 84.0867 77.524 83.7558 77.5408 83.3823V73.3477C77.5408 72.9829 77.5579 72.6261 77.5918 72.2781C77.6256 71.93 77.7125 71.6202 77.8527 71.3484C77.9926 71.0769 78.2026 70.8584 78.4826 70.6926C78.7627 70.5271 79.1528 70.4446 79.6536 70.4446C80.1457 70.4446 80.5318 70.5271 80.8115 70.6926C81.0916 70.8584 81.3016 71.0769 81.4414 71.3484C81.5816 71.6202 81.6705 71.93 81.7088 72.2781C81.747 72.6261 81.7661 72.9829 81.7661 73.3477V83.051C81.7661 83.934 81.6239 84.7066 81.3398 85.3688C81.0557 86.0309 80.6525 86.5847 80.1306 87.0304C79.609 87.4761 78.9854 87.8114 78.2599 88.0366C77.5344 88.2614 76.7348 88.3739 75.861 88.3739C74.9785 88.3739 74.1768 88.2571 73.4557 88.0238C72.7345 87.7902 72.113 87.4486 71.591 86.9985C71.0694 86.5488 70.6663 85.9927 70.3822 85.3305C70.0977 84.6683 69.9558 83.9085 69.9558 83.051V73.3477Z" fill="#00FFEB"/>
<path d="M97.4095 84.1461C97.1637 84.1461 96.9537 84.0995 96.7796 84.0062C96.6059 83.9129 96.4553 83.7937 96.3278 83.6494C96.2007 83.5051 96.0923 83.344 96.0035 83.1658C95.9142 82.9872 95.8401 82.8134 95.7807 82.6436L93.3627 75.6654H93.0316V86.2853C93.0316 86.5572 93.0148 86.8119 92.981 87.0496C92.9467 87.2872 92.8726 87.4973 92.7582 87.6798C92.6435 87.8624 92.4738 88.0067 92.2491 88.1128C92.0243 88.2188 91.7167 88.2719 91.3263 88.2719C90.8852 88.2719 90.5374 88.2188 90.2828 88.1128C90.0282 88.0067 89.8374 87.8624 89.7099 87.6798C89.5828 87.4973 89.5023 87.2872 89.4684 87.0496C89.4342 86.8119 89.4174 86.5572 89.4174 86.2853V73.3477C89.4174 72.9829 89.4278 72.6261 89.4493 72.2781C89.4704 71.93 89.5405 71.6202 89.6593 71.3484C89.778 71.0769 89.9668 70.8584 90.2255 70.6926C90.4844 70.5271 90.8514 70.4446 91.3263 70.4446H93.0571C93.3456 70.4446 93.5894 70.455 93.789 70.4761C93.9882 70.4976 94.1727 70.5698 94.3424 70.6926C94.5122 70.8158 94.6799 71.0131 94.8452 71.285C95.0106 71.5565 95.1931 71.9408 95.3926 72.4375C95.5919 72.9338 95.823 73.5665 96.086 74.3347C96.3493 75.1029 96.6716 76.0474 97.0533 77.168L97.3841 78.1866H97.6896L98.0968 76.9133C98.4447 75.8436 98.7419 74.9395 98.9877 74.2008C99.2339 73.4624 99.4503 72.8533 99.6368 72.3737C99.8236 71.8941 99.991 71.5246 100.14 71.2658C100.288 71.0067 100.445 70.8158 100.61 70.6926C100.776 70.5698 100.956 70.4976 101.151 70.4761C101.346 70.455 101.584 70.4446 101.864 70.4446H103.722C104.197 70.4446 104.564 70.5271 104.823 70.6926C105.082 70.8584 105.271 71.0769 105.389 71.3484C105.508 71.6202 105.578 71.93 105.599 72.2781C105.62 72.6261 105.631 72.9829 105.631 73.3477V86.2853C105.631 86.5572 105.614 86.8119 105.58 87.0496C105.546 87.2872 105.466 87.4973 105.338 87.6798C105.211 87.8624 105.02 88.0067 104.766 88.1128C104.511 88.2188 104.163 88.2719 103.722 88.2719C103.332 88.2719 103.024 88.2188 102.799 88.1128C102.574 88.0067 102.405 87.8624 102.29 87.6798C102.176 87.4973 102.101 87.2872 102.068 87.0496C102.034 86.8119 102.017 86.5572 102.017 86.2853V75.6654H101.66L99.2678 82.6436C99.2 82.8134 99.1236 82.9872 99.0387 83.1658C98.9538 83.344 98.8478 83.5051 98.7204 83.6494C98.5933 83.7937 98.4447 83.9129 98.2749 84.0062C98.1056 84.0995 97.9016 84.1461 97.6641 84.1461H97.4095Z" fill="#00FFEB"/>
<path d="M10.7084 70.4446C11.0478 70.4446 11.3893 70.4573 11.7331 70.4825C12.0766 70.508 12.3885 70.5802 12.6683 70.699C12.9484 70.8181 13.1754 70.9983 13.3492 71.2403C13.5233 71.4823 13.6101 71.8196 13.6101 72.2525C13.6101 72.6771 13.5233 73.0104 13.3492 73.2523C13.1754 73.4943 12.9484 73.6746 12.6683 73.7934C12.3885 73.9122 12.0766 73.9867 11.7331 74.0162C11.3893 74.0461 11.0478 74.0609 10.7084 74.0609H9.41031V85.3688C9.41031 85.7336 9.39991 86.0904 9.37844 86.4384C9.35731 86.7864 9.28721 87.0962 9.16847 87.3681C9.04973 87.6396 8.85887 87.858 8.5959 88.0238C8.33293 88.1893 7.95961 88.2719 7.47592 88.2719C6.99224 88.2719 6.61892 88.1893 6.35595 88.0238C6.09297 87.858 5.90212 87.6396 5.78338 87.3681C5.66464 87.0962 5.59454 86.7864 5.5734 86.4384C5.55194 86.0904 5.54154 85.7336 5.54154 85.3688V74.0609H4.24345C3.904 74.0609 3.56254 74.0461 3.21873 74.0162C2.87526 73.9867 2.56332 73.9122 2.28357 73.7934C2.0035 73.6746 1.77641 73.4943 1.60266 73.2523C1.42858 73.0104 1.34171 72.6771 1.34171 72.2525C1.34171 71.8196 1.42858 71.4823 1.60266 71.2403C1.77641 70.9983 2.0035 70.8181 2.28357 70.699C2.56332 70.5802 2.87526 70.508 3.21873 70.4825C3.56254 70.4573 3.904 70.4446 4.24345 70.4446H10.7084Z" fill="#FF00E0"/>
<path d="M18.945 75.4872C18.945 74.672 19.0641 73.9783 19.3016 73.405C19.5391 72.8321 19.8423 72.3546 20.2116 71.9726C20.5806 71.5904 20.9878 71.2913 21.4332 71.0748C21.8786 70.8584 22.3113 70.6949 22.7313 70.5845C23.1512 70.4741 23.5309 70.4063 23.8704 70.3808C24.2098 70.3553 24.4601 70.3425 24.6214 70.3425H25.0541C25.2151 70.3425 25.4653 70.3553 25.8048 70.3808C26.1442 70.4063 26.5219 70.4741 26.9375 70.5845C27.3531 70.6949 27.7838 70.8584 28.2292 71.0748C28.6747 71.2913 29.0778 71.5904 29.4384 71.9726C29.799 72.3546 30.0958 72.8321 30.3293 73.405C30.5624 73.9783 30.6791 74.672 30.6791 75.4872V83.102C30.6791 83.9424 30.5624 84.6556 30.3293 85.2412C30.0958 85.8272 29.799 86.3152 29.4384 86.7058C29.0778 87.0962 28.6747 87.4039 28.2292 87.6288C27.7838 87.854 27.3531 88.0215 26.9375 88.1319C26.5219 88.2423 26.1442 88.3101 25.8048 88.3356C25.4653 88.3611 25.2151 88.3739 25.0541 88.3739H24.6214C24.4601 88.3739 24.2098 88.3611 23.8704 88.3356C23.5309 88.3101 23.1512 88.2423 22.7313 88.1319C22.3113 88.0215 21.8786 87.854 21.4332 87.6288C20.9878 87.4039 20.5806 87.0962 20.2116 86.7058C19.8423 86.3152 19.5391 85.8272 19.3016 85.2412C19.0641 84.6556 18.945 83.9424 18.945 83.102V75.4872ZM23.1704 83.586C23.1875 83.9001 23.2596 84.176 23.3867 84.4136C23.4971 84.6257 23.6648 84.817 23.8895 84.9865C24.1142 85.1563 24.4346 85.2412 24.8505 85.2412C25.2577 85.2412 25.5717 85.1563 25.792 84.9865C26.0127 84.817 26.1781 84.6257 26.2885 84.4136C26.4072 84.176 26.4793 83.9001 26.5048 83.586V75.2835C26.4793 74.9777 26.4072 74.7019 26.2885 74.4555C26.1781 74.2518 26.0127 74.0628 25.792 73.889C25.5717 73.7148 25.2577 73.6279 24.8505 73.6279C24.4346 73.6279 24.1142 73.7148 23.8895 73.889C23.6648 74.0628 23.4971 74.2518 23.3867 74.4555C23.2596 74.7019 23.1875 74.9777 23.1704 75.2835V83.586Z" fill="#FF00E0"/>
<path d="M47.5446 83H47.8498V72.4311C47.8498 72.1592 47.8669 71.9025 47.9008 71.6605C47.9347 71.4185 48.0091 71.2084 48.1235 71.0302C48.2382 70.852 48.4079 70.7097 48.6327 70.6037C48.8574 70.4976 49.165 70.4446 49.5554 70.4446C49.9881 70.4446 50.3296 70.4976 50.5798 70.6037C50.83 70.7097 51.0189 70.852 51.146 71.0302C51.2735 71.2084 51.354 71.4185 51.3878 71.6605C51.4217 71.9025 51.4388 72.1592 51.4388 72.4311V85.3433C51.4388 85.7168 51.4281 86.0776 51.407 86.4256C51.3858 86.7737 51.3181 87.0858 51.2034 87.3617C51.089 87.6375 50.9021 87.858 50.6435 88.0238C50.3846 88.1893 50.022 88.2719 49.5554 88.2719H47.8753C47.4765 88.2719 47.1437 88.1933 46.8764 88.0366C46.6091 87.8795 46.3863 87.6882 46.2082 87.4634C46.0301 87.2385 45.8879 87.0029 45.7819 86.7566C45.6759 86.5105 45.5931 86.3025 45.5337 86.1326L41.6901 75.7164H41.3848V86.2853C41.3848 86.5572 41.3677 86.8139 41.3339 87.0559C41.3 87.2979 41.2259 87.508 41.1111 87.6862C40.9968 87.8644 40.827 88.0067 40.602 88.1128C40.3772 88.2188 40.0696 88.2719 39.6796 88.2719C39.2381 88.2719 38.8903 88.2188 38.6357 88.1128C38.3815 88.0067 38.1903 87.8644 38.0631 87.6862C37.936 87.508 37.8552 87.2979 37.8213 87.0559C37.7874 86.8139 37.7703 86.5572 37.7703 86.2853V73.3732C37.7703 73.0084 37.7811 72.6496 37.8022 72.2972C37.8233 71.9448 37.8934 71.631 38.0122 71.3548C38.1309 71.0789 38.3197 70.8584 38.5787 70.6926C38.8373 70.5271 39.2043 70.4446 39.6796 70.4446H41.3594C41.7837 70.4446 42.1292 70.5271 42.3965 70.6926C42.6638 70.8584 42.8822 71.0386 43.0519 71.234C43.2387 71.4632 43.387 71.7263 43.4973 72.0233L47.5446 83Z" fill="#FF00E0"/>
<path d="M59.2428 73.3732C59.2428 73.0084 59.2619 72.6516 59.3002 72.3036C59.3384 71.9555 59.4273 71.6434 59.5675 71.3675C59.7074 71.0916 59.9173 70.8688 60.1974 70.699C60.4772 70.5295 60.8632 70.4446 61.3553 70.4446C61.8477 70.4446 62.2334 70.5295 62.5135 70.699C62.7936 70.8688 63.0036 71.0916 63.1434 71.3675C63.2836 71.6434 63.3725 71.9555 63.4108 72.3036C63.449 72.6516 63.4681 73.0084 63.4681 73.3732V85.3433C63.4681 85.7168 63.451 86.0776 63.4171 86.4256C63.3833 86.7737 63.2964 87.0858 63.1562 87.3617C63.0163 87.6375 62.8043 87.858 62.5199 88.0238C62.2358 88.1893 61.8477 88.2719 61.3553 88.2719C60.8632 88.2719 60.4772 88.1893 60.1974 88.0238C59.9173 87.858 59.7074 87.6375 59.5675 87.3617C59.4273 87.0858 59.3384 86.7737 59.3002 86.4256C59.2619 86.0776 59.2428 85.7168 59.2428 85.3433V73.3732Z" fill="#FF00E0"/>
<path d="M71.2975 73.3477C71.2975 72.9829 71.3167 72.6261 71.3549 72.2781C71.3928 71.93 71.482 71.6202 71.6219 71.3484C71.7621 71.0769 71.9721 70.8584 72.2518 70.6926C72.5319 70.5271 72.918 70.4446 73.41 70.4446C73.9021 70.4446 74.2902 70.5271 74.5746 70.6926C74.8587 70.8584 75.0711 71.0769 75.2109 71.3484C75.3508 71.6202 75.438 71.93 75.4719 72.2781C75.5058 72.6261 75.5229 72.9829 75.5229 73.3477V83.3823C75.548 83.7558 75.6245 84.0867 75.752 84.3753C75.8026 84.5029 75.8707 84.6257 75.9556 84.7449C76.0404 84.8637 76.1401 84.9697 76.2544 85.063C76.3691 85.1563 76.5047 85.2308 76.6616 85.2859C76.8186 85.3409 76.9991 85.3688 77.2027 85.3688C77.4063 85.3688 77.5887 85.3409 77.7498 85.2859C77.9111 85.2308 78.0489 85.1563 78.1637 85.063C78.278 84.9697 78.3777 84.8637 78.4625 84.7449C78.5474 84.6257 78.6151 84.5029 78.6661 84.3753C78.7936 84.0867 78.8657 83.7558 78.8825 83.3823V73.3477C78.8825 72.9829 78.8996 72.6261 78.9335 72.2781C78.9673 71.93 79.0542 71.6202 79.1944 71.3484C79.3343 71.0769 79.5443 70.8584 79.8243 70.6926C80.1044 70.5271 80.4945 70.4446 80.9953 70.4446C81.4874 70.4446 81.8734 70.5271 82.1532 70.6926C82.4333 70.8584 82.6432 71.0769 82.7831 71.3484C82.9233 71.6202 83.0122 71.93 83.0504 72.2781C83.0887 72.6261 83.1078 72.9829 83.1078 73.3477V83.051C83.1078 83.934 82.9656 84.7066 82.6815 85.3688C82.3974 86.0309 81.9942 86.5847 81.4723 87.0304C80.9507 87.4761 80.3271 87.8114 79.6016 88.0366C78.8761 88.2614 78.0765 88.3739 77.2027 88.3739C76.3202 88.3739 75.5185 88.2571 74.7974 88.0238C74.0762 87.7902 73.4547 87.4486 72.9327 86.9985C72.4112 86.5488 72.008 85.9927 71.7239 85.3305C71.4394 84.6683 71.2975 83.9085 71.2975 83.051V73.3477Z" fill="#FF00E0"/>
<path d="M98.7513 84.1461C98.5054 84.1461 98.2954 84.0995 98.1214 84.0062C97.9476 83.9129 97.797 83.7937 97.6695 83.6494C97.5424 83.5051 97.4341 83.344 97.3452 83.1658C97.256 82.9872 97.1818 82.8134 97.1225 82.6436L94.7044 75.6654H94.3733V86.2853C94.3733 86.5572 94.3566 86.8119 94.3227 87.0496C94.2885 87.2872 94.2143 87.4973 94.1 87.6798C93.9853 87.8624 93.8155 88.0067 93.5908 88.1128C93.3661 88.2188 93.0585 88.2719 92.6681 88.2719C92.227 88.2719 91.8791 88.2188 91.6246 88.1128C91.37 88.0067 91.1791 87.8624 91.0516 87.6798C90.9245 87.4973 90.844 87.2872 90.8101 87.0496C90.7759 86.8119 90.7592 86.5572 90.7592 86.2853V73.3477C90.7592 72.9829 90.7696 72.6261 90.791 72.2781C90.8122 71.93 90.8823 71.6202 91.001 71.3484C91.1197 71.0769 91.3086 70.8584 91.5672 70.6926C91.8261 70.5271 92.1931 70.4446 92.6681 70.4446H94.3988C94.6873 70.4446 94.9312 70.455 95.1307 70.4761C95.33 70.4976 95.5145 70.5698 95.6842 70.6926C95.8539 70.8158 96.0216 71.0131 96.187 71.285C96.3523 71.5565 96.5348 71.9408 96.7344 72.4375C96.9336 72.9338 97.1647 73.5665 97.4277 74.3347C97.691 75.1029 98.0134 76.0474 98.3951 77.168L98.7258 78.1866H99.0314L99.4386 76.9133C99.7864 75.8436 100.084 74.9395 100.329 74.2008C100.576 73.4624 100.792 72.8533 100.978 72.3737C101.165 71.8941 101.333 71.5246 101.481 71.2658C101.63 71.0067 101.787 70.8158 101.952 70.6926C102.118 70.5698 102.298 70.4976 102.493 70.4761C102.688 70.455 102.926 70.4446 103.206 70.4446H105.064C105.539 70.4446 105.906 70.5271 106.165 70.6926C106.423 70.8584 106.612 71.0769 106.731 71.3484C106.85 71.6202 106.92 71.93 106.941 72.2781C106.962 72.6261 106.973 72.9829 106.973 73.3477V86.2853C106.973 86.5572 106.956 86.8119 106.922 87.0496C106.888 87.2872 106.807 87.4973 106.68 87.6798C106.553 87.8624 106.362 88.0067 106.107 88.1128C105.853 88.2188 105.505 88.2719 105.064 88.2719C104.674 88.2719 104.366 88.2188 104.141 88.1128C103.916 88.0067 103.747 87.8624 103.632 87.6798C103.518 87.4973 103.443 87.2872 103.409 87.0496C103.375 86.8119 103.358 86.5572 103.358 86.2853V75.6654H103.002L100.61 82.6436C100.542 82.8134 100.465 82.9872 100.38 83.1658C100.296 83.344 100.19 83.5051 100.062 83.6494C99.935 83.7937 99.7864 83.9129 99.6167 84.0062C99.4473 84.0995 99.2433 84.1461 99.0059 84.1461H98.7513Z" fill="#FF00E0"/>
<path d="M10.0375 70.4446C10.377 70.4446 10.7184 70.4573 11.0622 70.4825C11.4057 70.508 11.7177 70.5802 11.9974 70.699C12.2775 70.8181 12.5046 70.9983 12.6783 71.2403C12.8524 71.4823 12.9393 71.8196 12.9393 72.2525C12.9393 72.6771 12.8524 73.0104 12.6783 73.2523C12.5046 73.4943 12.2775 73.6746 11.9974 73.7934C11.7177 73.9122 11.4057 73.9867 11.0622 74.0162C10.7184 74.0461 10.377 74.0609 10.0375 74.0609H8.73944V85.3688C8.73944 85.7336 8.72904 86.0904 8.70758 86.4384C8.68644 86.7864 8.61634 87.0962 8.4976 87.3681C8.37886 87.6396 8.18801 87.858 7.92503 88.0238C7.66206 88.1893 7.28874 88.2719 6.80506 88.2719C6.32138 88.2719 5.94805 88.1893 5.68508 88.0238C5.42211 87.858 5.23125 87.6396 5.11251 87.3681C4.99377 87.0962 4.92367 86.7864 4.90254 86.4384C4.88107 86.0904 4.87067 85.7336 4.87067 85.3688V74.0609H3.57258C3.23313 74.0609 2.89167 74.0461 2.54787 74.0162C2.20439 73.9867 1.89245 73.9122 1.61271 73.7934C1.33263 73.6746 1.10555 73.4943 0.931797 73.2523C0.757712 73.0104 0.670837 72.6771 0.670837 72.2525C0.670837 71.8196 0.757712 71.4823 0.931797 71.2403C1.10555 70.9983 1.33263 70.8181 1.61271 70.699C1.89245 70.5802 2.20439 70.508 2.54787 70.4825C2.89167 70.4573 3.23313 70.4446 3.57258 70.4446H10.0375Z" fill="white"/>
<path d="M18.2742 75.4872C18.2742 74.672 18.3932 73.9783 18.6307 73.405C18.8682 72.8321 19.1714 72.3546 19.5407 71.9726C19.9097 71.5904 20.3169 71.2913 20.7623 71.0748C21.2078 70.8584 21.6405 70.6949 22.0604 70.5845C22.4804 70.4741 22.8601 70.4063 23.1995 70.3808C23.539 70.3553 23.7892 70.3425 23.9505 70.3425H24.3832C24.5442 70.3425 24.7945 70.3553 25.1339 70.3808C25.4734 70.4063 25.851 70.4741 26.2666 70.5845C26.6822 70.6949 27.1129 70.8584 27.5584 71.0748C28.0038 71.2913 28.407 71.5904 28.7676 71.9726C29.1281 72.3546 29.425 72.8321 29.6584 73.405C29.8916 73.9783 30.0083 74.672 30.0083 75.4872V83.102C30.0083 83.9424 29.8916 84.6556 29.6584 85.2412C29.425 85.8272 29.1281 86.3152 28.7676 86.7058C28.407 87.0962 28.0038 87.4039 27.5584 87.6288C27.1129 87.854 26.6822 88.0215 26.2666 88.1319C25.851 88.2423 25.4734 88.3101 25.1339 88.3356C24.7945 88.3611 24.5442 88.3739 24.3832 88.3739H23.9505C23.7892 88.3739 23.539 88.3611 23.1995 88.3356C22.8601 88.3101 22.4804 88.2423 22.0604 88.1319C21.6405 88.0215 21.2078 87.854 20.7623 87.6288C20.3169 87.4039 19.9097 87.0962 19.5407 86.7058C19.1714 86.3152 18.8682 85.8272 18.6307 85.2412C18.3932 84.6556 18.2742 83.9424 18.2742 83.102V75.4872ZM22.4995 83.586C22.5166 83.9001 22.5887 84.176 22.7158 84.4136C22.8262 84.6257 22.9939 84.817 23.2186 84.9865C23.4434 85.1563 23.7637 85.2412 24.1796 85.2412C24.5868 85.2412 24.9008 85.1563 25.1212 84.9865C25.3419 84.817 25.5072 84.6257 25.6176 84.4136C25.7363 84.176 25.8084 83.9001 25.8339 83.586V75.2835C25.8084 74.9777 25.7363 74.7019 25.6176 74.4555C25.5072 74.2518 25.3419 74.0628 25.1212 73.889C24.9008 73.7148 24.5868 73.6279 24.1796 73.6279C23.7637 73.6279 23.4434 73.7148 23.2186 73.889C22.9939 74.0628 22.8262 74.2518 22.7158 74.4555C22.5887 74.7019 22.5166 74.9777 22.4995 75.2835V83.586Z" fill="white"/>
<path d="M46.8737 83H47.1789V72.4311C47.1789 72.1592 47.1961 71.9025 47.2299 71.6605C47.2638 71.4185 47.3383 71.2084 47.4526 71.0302C47.5674 70.852 47.7371 70.7097 47.9618 70.6037C48.1866 70.4976 48.4941 70.4446 48.8846 70.4446C49.3173 70.4446 49.6587 70.4976 49.909 70.6037C50.1592 70.7097 50.348 70.852 50.4751 71.0302C50.6026 71.2084 50.6831 71.4185 50.717 71.6605C50.7509 71.9025 50.768 72.1592 50.768 72.4311V85.3433C50.768 85.7168 50.7572 86.0776 50.7361 86.4256C50.715 86.7737 50.6472 87.0858 50.5325 87.3617C50.4181 87.6375 50.2313 87.858 49.9727 88.0238C49.7137 88.1893 49.3511 88.2719 48.8846 88.2719H47.2044C46.8056 88.2719 46.4729 88.1933 46.2056 88.0366C45.9382 87.8795 45.7155 87.6882 45.5374 87.4634C45.3593 87.2385 45.2171 87.0029 45.1111 86.7566C45.0051 86.5105 44.9222 86.3025 44.8629 86.1326L41.0192 75.7164H40.714V86.2853C40.714 86.5572 40.6969 86.8139 40.663 87.0559C40.6291 87.2979 40.555 87.508 40.4403 87.6862C40.3259 87.8644 40.1562 88.0067 39.9311 88.1128C39.7064 88.2188 39.3988 88.2719 39.0087 88.2719C38.5673 88.2719 38.2195 88.2188 37.9649 88.1128C37.7106 88.0067 37.5194 87.8644 37.3923 87.6862C37.2652 87.508 37.1843 87.2979 37.1505 87.0559C37.1166 86.8139 37.0995 86.5572 37.0995 86.2853V73.3732C37.0995 73.0084 37.1102 72.6496 37.1314 72.2972C37.1525 71.9448 37.2226 71.631 37.3413 71.3548C37.4601 71.0789 37.6489 70.8584 37.9079 70.6926C38.1665 70.5271 38.5334 70.4446 39.0087 70.4446H40.6885C41.1128 70.4446 41.4583 70.5271 41.7256 70.6926C41.993 70.8584 42.2113 71.0386 42.3811 71.234C42.5679 71.4632 42.7161 71.7263 42.8265 72.0233L46.8737 83Z" fill="white"/>
<path d="M58.5719 73.3732C58.5719 73.0084 58.5911 72.6516 58.6293 72.3036C58.6675 71.9555 58.7564 71.6434 58.8966 71.3675C59.0365 71.0916 59.2465 70.8688 59.5265 70.699C59.8063 70.5295 60.1924 70.4446 60.6844 70.4446C61.1768 70.4446 61.5626 70.5295 61.8426 70.699C62.1227 70.8688 62.3327 71.0916 62.4726 71.3675C62.6128 71.6434 62.7017 71.9555 62.7399 72.3036C62.7781 72.6516 62.7973 73.0084 62.7973 73.3732V85.3433C62.7973 85.7168 62.7801 86.0776 62.7463 86.4256C62.7124 86.7737 62.6255 87.0858 62.4853 87.3617C62.3454 87.6375 62.1335 87.858 61.849 88.0238C61.5649 88.1893 61.1768 88.2719 60.6844 88.2719C60.1924 88.2719 59.8063 88.1893 59.5265 88.0238C59.2465 87.858 59.0365 87.6375 58.8966 87.3617C58.7564 87.0858 58.6675 86.7737 58.6293 86.4256C58.5911 86.0776 58.5719 85.7168 58.5719 85.3433V73.3732Z" fill="white"/>
<path d="M70.6267 73.3477C70.6267 72.9829 70.6458 72.6261 70.684 72.2781C70.7219 71.93 70.8112 71.6202 70.951 71.3484C71.0912 71.0769 71.3012 70.8584 71.581 70.6926C71.861 70.5271 72.2471 70.4446 72.7392 70.4446C73.2312 70.4446 73.6193 70.5271 73.9038 70.6926C74.1879 70.8584 74.4002 71.0769 74.5401 71.3484C74.6799 71.6202 74.7671 71.93 74.801 72.2781C74.8349 72.6261 74.852 72.9829 74.852 73.3477V83.3823C74.8772 83.7558 74.9536 84.0867 75.0811 84.3753C75.1318 84.5029 75.1998 84.6257 75.2847 84.7449C75.3696 84.8637 75.4692 84.9697 75.5836 85.063C75.6983 85.1563 75.8338 85.2308 75.9908 85.2859C76.1478 85.3409 76.3282 85.3688 76.5318 85.3688C76.7354 85.3688 76.9179 85.3409 77.0789 85.2859C77.2402 85.2308 77.3781 85.1563 77.4928 85.063C77.6072 84.9697 77.7068 84.8637 77.7917 84.7449C77.8765 84.6257 77.9443 84.5029 77.9953 84.3753C78.1227 84.0867 78.1948 83.7558 78.2116 83.3823V73.3477C78.2116 72.9829 78.2287 72.6261 78.2626 72.2781C78.2965 71.93 78.3833 71.6202 78.5236 71.3484C78.6634 71.0769 78.8734 70.8584 79.1535 70.6926C79.4336 70.5271 79.8237 70.4446 80.3244 70.4446C80.8165 70.4446 81.2026 70.5271 81.4823 70.6926C81.7624 70.8584 81.9724 71.0769 82.1123 71.3484C82.2525 71.6202 82.3413 71.93 82.3796 72.2781C82.4178 72.6261 82.4369 72.9829 82.4369 73.3477V83.051C82.4369 83.934 82.2947 84.7066 82.0106 85.3688C81.7265 86.0309 81.3233 86.5847 80.8014 87.0304C80.2798 87.4761 79.6563 87.8114 78.9308 88.0366C78.2052 88.2614 77.4056 88.3739 76.5318 88.3739C75.6493 88.3739 74.8477 88.2571 74.1265 88.0238C73.4053 87.7902 72.7838 87.4486 72.2619 86.9985C71.7403 86.5488 71.3371 85.9927 71.053 85.3305C70.7686 84.6683 70.6267 83.9085 70.6267 83.051V73.3477Z" fill="white"/>
<path d="M98.0804 84.1461C97.8345 84.1461 97.6245 84.0995 97.4505 84.0062C97.2767 83.9129 97.1261 83.7937 96.9986 83.6494C96.8715 83.5051 96.7632 83.344 96.6743 83.1658C96.5851 82.9872 96.5109 82.8134 96.4516 82.6436L94.0335 75.6654H93.7024V86.2853C93.7024 86.5572 93.6857 86.8119 93.6518 87.0496C93.6176 87.2872 93.5434 87.4973 93.4291 87.6798C93.3144 87.8624 93.1446 88.0067 92.9199 88.1128C92.6952 88.2188 92.3876 88.2719 91.9972 88.2719C91.5561 88.2719 91.2082 88.2188 90.9537 88.1128C90.6991 88.0067 90.5082 87.8624 90.3807 87.6798C90.2536 87.4973 90.1731 87.2872 90.1392 87.0496C90.105 86.8119 90.0883 86.5572 90.0883 86.2853V73.3477C90.0883 72.9829 90.0987 72.6261 90.1201 72.2781C90.1413 71.93 90.2114 71.6202 90.3301 71.3484C90.4488 71.0769 90.6377 70.8584 90.8963 70.6926C91.1552 70.5271 91.5222 70.4446 91.9972 70.4446H93.7279C94.0164 70.4446 94.2603 70.455 94.4598 70.4761C94.6591 70.4976 94.8436 70.5698 95.0133 70.6926C95.183 70.8158 95.3507 71.0131 95.5161 71.285C95.6814 71.5565 95.8639 71.9408 96.0635 72.4375C96.2627 72.9338 96.4938 73.5665 96.7568 74.3347C97.0201 75.1029 97.3425 76.0474 97.7242 77.168L98.0549 78.1866H98.3605L98.7677 76.9133C99.1155 75.8436 99.4127 74.9395 99.6586 74.2008C99.9048 73.4624 100.121 72.8533 100.308 72.3737C100.494 71.8941 100.662 71.5246 100.81 71.2658C100.959 71.0067 101.116 70.8158 101.281 70.6926C101.447 70.5698 101.627 70.4976 101.822 70.4761C102.017 70.455 102.255 70.4446 102.535 70.4446H104.393C104.868 70.4446 105.235 70.5271 105.494 70.6926C105.753 70.8584 105.941 71.0769 106.06 71.3484C106.179 71.6202 106.249 71.93 106.27 72.2781C106.291 72.6261 106.302 72.9829 106.302 73.3477V86.2853C106.302 86.5572 106.285 86.8119 106.251 87.0496C106.217 87.2872 106.137 87.4973 106.009 87.6798C105.882 87.8624 105.691 88.0067 105.437 88.1128C105.182 88.2188 104.834 88.2719 104.393 88.2719C104.003 88.2719 103.695 88.2188 103.47 88.1128C103.245 88.0067 103.076 87.8624 102.961 87.6798C102.847 87.4973 102.772 87.2872 102.738 87.0496C102.705 86.8119 102.687 86.5572 102.687 86.2853V75.6654H102.331L99.9386 82.6436C99.8709 82.8134 99.7944 82.9872 99.7095 83.1658C99.6247 83.344 99.5187 83.5051 99.3912 83.6494C99.2641 83.7937 99.1155 83.9129 98.9458 84.0062C98.7764 84.0995 98.5724 84.1461 98.335 84.1461H98.0804Z" fill="white"/>
<path d="M19.5857 97.6758H18.888V92.9705C19.0541 92.9748 19.2872 92.9772 19.5877 92.9772C19.5921 92.9812 19.5944 92.9856 19.5944 92.9896L21.2897 96.3149V92.9705H21.9873V97.6691C21.9873 97.6738 21.985 97.6758 21.9806 97.6758C21.7123 97.6714 21.4819 97.6691 21.2897 97.6691C21.294 97.6647 21.2897 97.6624 21.2762 97.6624L19.5857 94.3465V97.6758Z" fill="white"/>
<path d="M23.5638 97.6691H24.2414L24.2481 95.7561H25.2678V95.1453H24.2481V94.5546C24.2481 94.17 24.4068 93.9169 24.7244 93.7961C24.9032 93.729 25.2185 93.6954 25.6703 93.6954H25.9521V93.0107H25.1068C24.6818 93.0107 24.3185 93.1618 24.0167 93.4638C23.7148 93.7659 23.5638 94.1297 23.5638 94.5546V97.6691Z" fill="white"/>
<path d="M29.6216 93.0175V93.6954H28.7763V97.6758H28.1122V93.6954H27.2602V93.0175H29.6216Z" fill="white"/>
<path d="M34.6127 97.6758H33.915V92.9772C33.9194 92.9728 33.9194 92.9705 33.915 92.9705H34.6127C34.6147 92.9765 34.6157 92.9768 34.6157 92.9725L35.9309 95.5648L37.2488 92.9839C37.2535 92.9839 37.2558 92.9815 37.2558 92.9772L37.9535 92.9705V97.6758H37.2558V94.3465C36.9697 94.9103 36.5313 95.7494 35.941 96.8636C35.6817 96.4206 35.2389 95.5816 34.6127 94.3465V97.6758Z" fill="white"/>
<path d="M42.6226 93.0175V96.132C42.6226 96.5572 42.4706 96.9207 42.1664 97.2227C41.8622 97.5248 41.4999 97.6758 41.0796 97.6758C40.6546 97.6758 40.2904 97.5248 39.9861 97.2227C39.6819 96.9207 39.53 96.5572 39.53 96.132V93.0175H40.2142V96.1374C40.2142 96.375 40.2991 96.5777 40.4692 96.7458C40.6392 96.914 40.8425 96.9979 41.0796 96.9979C41.3121 96.9979 41.5133 96.913 41.6834 96.7425C41.8534 96.5723 41.9383 96.3706 41.9383 96.1374V93.0175H42.6226Z" fill="white"/>
<path d="M44.1588 93.0175H44.8363C44.8363 93.3313 44.834 93.7595 44.8296 94.3019C44.8206 94.9204 44.8162 95.3507 44.8162 95.5926C44.8162 96.2068 44.9101 96.5968 45.098 96.7626C45.268 96.9197 45.6571 96.9979 46.2652 96.9979H46.547V97.6758H45.7017C45.2814 97.6758 44.9192 97.5238 44.615 97.2194C44.3107 96.9153 44.1588 96.5528 44.1588 96.132V93.0175Z" fill="white"/>
<path d="M49.4853 93.0175V93.6954H48.6401V97.6758H47.9759V93.6954H47.124V93.0175H49.4853Z" fill="white"/>
<path d="M51.7796 93.004H51.0685V97.6691H51.7796V93.004Z" fill="white"/>
<path d="M59.3065 94.568C59.3065 94.1431 59.1566 93.7807 58.857 93.4806C58.5575 93.1809 58.1929 93.0309 57.7636 93.0309L56.2273 93.0175V97.6691H56.9049V95.991H58.0789C58.4277 95.9867 58.7229 95.8323 58.9644 95.5279C59.1925 95.2416 59.3065 94.9217 59.3065 94.568ZM56.9049 95.4003V93.7088H57.7636C57.9873 93.7088 58.1872 93.784 58.364 93.9337C58.5407 94.0837 58.629 94.2683 58.629 94.4875C58.629 94.7338 58.5508 94.9473 58.3942 95.1285C58.2375 95.3097 58.0363 95.4003 57.7904 95.4003H56.9049Z" fill="white"/>
<path d="M60.6549 93.0175H61.3325C61.3325 93.3313 61.3301 93.7595 61.3258 94.3019C61.3167 94.9204 61.3124 95.3507 61.3124 95.5926C61.3124 96.2068 61.4063 96.5968 61.5941 96.7626C61.7642 96.9197 62.1533 96.9979 62.7614 96.9979H63.0432V97.6758H62.1979C61.7776 97.6758 61.4153 97.5238 61.1111 97.2194C60.8069 96.9153 60.6549 96.5528 60.6549 96.132V93.0175Z" fill="white"/>
<path d="M67.4036 97.6691V94.5613C67.4036 94.1408 67.2527 93.7793 66.9508 93.4772C66.6489 93.1752 66.2877 93.0242 65.8674 93.0242C65.4424 93.0242 65.0792 93.1752 64.7773 93.4772C64.4754 93.7793 64.3245 94.1408 64.3245 94.5613V97.6691H65.0087V95.991H66.7194V97.6691H67.4036ZM65.0087 95.4003V94.5613C65.0087 94.3287 65.0926 94.1273 65.2603 93.9572C65.428 93.7874 65.6303 93.7021 65.8674 93.7021C66.0999 93.7021 66.3001 93.7874 66.4678 93.9572C66.6355 94.1273 66.7194 94.3287 66.7194 94.5613V95.4003H65.0087Z" fill="white"/>
<path d="M71.1134 93.0175V93.6954H70.2681V97.6758H69.604V93.6954H68.752V93.0175H71.1134Z" fill="white"/>
<path d="M72.5289 97.6691H73.2065L73.2132 95.7561H74.2329V95.1453H73.2132V94.5546C73.2132 94.17 73.3718 93.9169 73.6895 93.7961C73.8683 93.729 74.1836 93.6954 74.6354 93.6954H74.9171V93.0107H74.0719C73.6469 93.0107 73.2836 93.1618 72.9817 93.4638C72.6799 93.7659 72.5289 94.1297 72.5289 94.5546V97.6691Z" fill="white"/>
<path d="M79.2843 96.1434C79.2843 96.5646 79.1344 96.9254 78.8349 97.2257C78.5353 97.5258 78.1751 97.6758 77.7548 97.6758C77.3345 97.6758 76.9743 97.5258 76.6747 97.2257C76.3752 96.9254 76.2253 96.5646 76.2253 96.1434V94.4831C76.2253 94.0662 76.3752 93.7068 76.6747 93.4041C76.9743 93.1017 77.3345 92.9503 77.7548 92.9503C78.1751 92.9503 78.5353 93.1017 78.8349 93.4041C79.1344 93.7068 79.2843 94.0662 79.2843 94.4831V96.1434ZM78.6001 96.142V94.4774C78.6001 94.2438 78.5169 94.0441 78.3505 93.8776C78.1842 93.7115 77.9856 93.6283 77.7548 93.6283C77.524 93.6283 77.3255 93.7115 77.1591 93.8776C76.9927 94.0441 76.9095 94.2438 76.9095 94.4774V96.142C76.9095 96.3756 76.9927 96.5767 77.1591 96.7451C77.3255 96.9136 77.524 96.9979 77.7548 96.9979C77.9856 96.9979 78.1842 96.9136 78.3505 96.7451C78.5169 96.5767 78.6001 96.3756 78.6001 96.142Z" fill="white"/>
<path d="M83.987 97.6691V96.4206C83.987 95.9195 83.835 95.6601 83.5308 95.642C83.835 95.3782 83.987 95.0134 83.987 94.5479C83.987 94.123 83.836 93.7592 83.5341 93.4571C83.2323 93.1551 82.8666 93.004 82.4373 93.004L80.8943 92.9973V97.6691H81.5786V95.9843H82.9337C83.1796 95.9843 83.3027 96.1343 83.3027 96.434V97.6691H83.987ZM81.5786 95.3869V93.6887H82.4373C82.661 93.6887 82.8609 93.7639 83.0377 93.9136C83.2145 94.0636 83.3027 94.2482 83.3027 94.4673C83.3027 94.718 83.2289 94.9328 83.0813 95.1117C82.9203 95.2953 82.7167 95.3869 82.4708 95.3869H81.5786Z" fill="white"/>
<path d="M86.2276 97.6758H85.5299V92.9772C85.5343 92.9728 85.5343 92.9705 85.5299 92.9705H86.2276C86.2296 92.9765 86.2306 92.9768 86.2306 92.9725L87.5458 95.5648L88.8637 92.9839C88.8684 92.9839 88.8707 92.9815 88.8707 92.9772L89.5684 92.9705V97.6758H88.8707V94.3465C88.5846 94.9103 88.1462 95.7494 87.5559 96.8636C87.2966 96.4206 86.8538 95.5816 86.2276 94.3465V97.6758Z" fill="white"/>
<path fill-rule="evenodd" clip-rule="evenodd" d="M46.2545 59.3987C46.2545 59.3987 25.3171 31.7758 21.2447 26.4033C20.8908 25.9364 20.6993 25.3666 20.6993 24.7809C20.6993 22.3212 20.6993 16.4553 20.6993 13.4193C20.6993 12.4792 21.1907 11.608 21.9947 11.1217L37.5228 1.72977C37.9414 1.47638 38.4217 1.34247 38.9108 1.34247C43.9569 1.34247 67.9088 1.34247 73.2893 1.34247C73.8484 1.34247 74.3938 1.51732 74.849 1.84253L87.7601 11.0686C88.4655 11.5727 88.8841 12.3866 88.8841 13.2538C88.8841 16.2371 88.8841 22.2755 88.8841 24.7809C88.8841 25.3666 88.6926 25.9364 88.3387 26.4033C84.2663 31.7758 63.3289 59.3987 63.3289 59.3987C63.1052 59.6937 63.1632 60.1153 63.458 60.3391C63.7532 60.563 64.1742 60.5049 64.3979 60.2099C64.3979 60.2099 85.3353 32.587 89.4077 27.2145C89.9384 26.5144 90.2258 25.6596 90.2258 24.7809C90.2258 22.2755 90.2258 16.2371 90.2258 13.2538C90.2258 11.953 89.5979 10.7323 88.54 9.9762C85.4524 7.77019 78.1506 2.55203 75.6285 0.750103C74.9459 0.262116 74.1282 0 73.2893 0C67.9088 0 43.9569 0 38.9108 0C38.1769 0 37.4567 0.200699 36.8288 0.580616C34.085 2.24024 25.0239 7.72086 21.3007 9.97284C20.0945 10.7021 19.3576 12.0094 19.3576 13.4193C19.3576 16.4553 19.3576 22.3212 19.3576 24.7809C19.3576 25.6596 19.6451 26.5144 20.1757 27.2145C24.2481 32.587 45.1855 60.2099 45.1855 60.2099C45.4093 60.5049 45.8302 60.563 46.1254 60.3391C46.4202 60.1153 46.4782 59.6937 46.2545 59.3987Z" fill="#FF00E0"/>
<path fill-rule="evenodd" clip-rule="evenodd" d="M44.9128 59.3987C44.9128 59.3987 23.9754 31.7758 19.903 26.4033C19.5491 25.9364 19.3576 25.3666 19.3576 24.7809C19.3576 22.3212 19.3576 16.4553 19.3576 13.4193C19.3576 12.4792 19.849 11.608 20.653 11.1217L36.1811 1.72977C36.5997 1.47638 37.08 1.34247 37.5691 1.34247C42.6152 1.34247 66.5671 1.34247 71.9476 1.34247C72.5067 1.34247 73.0521 1.51732 73.5073 1.84253L86.4184 11.0686C87.1238 11.5727 87.5424 12.3866 87.5424 13.2538C87.5424 16.2371 87.5424 22.2755 87.5424 24.7809C87.5424 25.3666 87.3509 25.9364 86.997 26.4033C82.9247 31.7758 61.9872 59.3987 61.9872 59.3987C61.7635 59.6937 61.8215 60.1153 62.1163 60.3391C62.4115 60.563 62.8325 60.5049 63.0562 60.2099C63.0562 60.2099 83.9937 32.587 88.066 27.2145C88.5967 26.5144 88.8841 25.6596 88.8841 24.7809C88.8841 22.2755 88.8841 16.2371 88.8841 13.2538C88.8841 11.953 88.2562 10.7323 87.1983 9.9762C84.1107 7.77019 76.8089 2.55203 74.2868 0.750103C73.6043 0.262116 72.7865 0 71.9476 0C66.5671 0 42.6152 0 37.5691 0C36.8352 0 36.115 0.200699 35.4871 0.580616C32.7433 2.24024 23.6822 7.72086 19.959 9.97284C18.7528 10.7021 18.0159 12.0094 18.0159 13.4193C18.0159 16.4553 18.0159 22.3212 18.0159 24.7809C18.0159 25.6596 18.3034 26.5144 18.834 27.2145C22.9064 32.587 43.8438 60.2099 43.8438 60.2099C44.0676 60.5049 44.4885 60.563 44.7837 60.3391C45.0785 60.1153 45.1365 59.6937 44.9128 59.3987Z" fill="#00FFEB"/>
<path fill-rule="evenodd" clip-rule="evenodd" d="M45.2083 59.6834L20.4229 26.5181C20.2351 26.267 20.0922 25.9888 19.9952 25.6948C19.899 25.4022 19.8507 25.0934 19.8527 24.7809L19.9131 13.4193C19.9154 12.93 20.0472 12.4594 20.2817 12.048C20.5155 11.6375 20.8539 11.2871 21.2725 11.0364L36.8358 1.70294C37.0478 1.57574 37.2756 1.47875 37.512 1.41364C37.7479 1.34853 37.993 1.31598 38.2399 1.31665C40.7774 1.32034 48.0957 1.3445 55.4294 1.34182C62.6792 1.33913 69.9435 1.31027 72.6185 1.30457C72.9022 1.30356 73.1826 1.34618 73.45 1.43076C73.7176 1.51567 73.9726 1.64119 74.2043 1.80564L87.1547 10.9774C87.5237 11.2385 87.8192 11.5801 88.0224 11.9701C88.226 12.3614 88.3384 12.8001 88.3407 13.2539L88.4021 24.7809C88.4038 25.0947 88.3552 25.4048 88.2582 25.6988C88.161 25.9939 88.0167 26.2731 87.8282 26.5251L63.0337 59.6834C62.967 59.7713 62.9841 59.8968 63.072 59.9636C63.1599 60.0301 63.2853 60.0129 63.3517 59.925L88.5765 27.0927C88.8308 26.7614 89.0263 26.3926 89.1598 26.0026C89.2937 25.6116 89.3634 25.1991 89.3661 24.7809L89.4275 13.2539C89.4305 12.6232 89.2799 12.0121 89.0022 11.4657C88.7241 10.9183 88.3159 10.4374 87.8041 10.0675L74.9315 0.787045C74.5948 0.544395 74.2238 0.358463 73.834 0.231936C73.4436 0.105073 73.0337 0.0396275 72.6185 0.0379494C69.9435 0.0322439 62.6792 0.00338093 55.4294 0.000695996C48.0957 -0.00198894 40.7774 0.0221754 38.2399 0.0258672C37.8756 0.0268741 37.5144 0.0772165 37.1669 0.175217C36.8194 0.273217 36.485 0.417867 36.174 0.60749L20.6812 10.0578C20.0952 10.4159 19.6226 10.9126 19.2989 11.4932C18.9762 12.0728 18.7991 12.734 18.8025 13.4193L18.8629 24.7809C18.8655 25.2008 18.9356 25.6146 19.0701 26.0063C19.2043 26.3976 19.4009 26.7674 19.6561 27.0997L44.89 59.925C44.9564 60.0129 45.0819 60.0301 45.1698 59.9636C45.2576 59.8968 45.2747 59.7713 45.2083 59.6834Z" fill="white"/>
<path fill-rule="evenodd" clip-rule="evenodd" d="M48.5723 53.602C48.5723 53.602 32.1721 31.9651 28.5995 27.2517C28.2457 26.7849 28.0541 26.2153 28.0541 25.6293V17.0879C28.0541 16.1478 28.5455 15.2762 29.3495 14.7899L41.359 7.52618C41.7776 7.27313 42.2576 7.13922 42.747 7.13922H69.9914C70.5506 7.13922 71.096 7.31374 71.5508 7.63895L81.484 14.7372C82.1894 15.2413 82.608 16.0549 82.608 16.9221V25.6293C82.608 26.2153 82.4165 26.7849 82.0626 27.2517C78.49 31.9651 62.0899 53.602 62.0899 53.602C61.8661 53.8973 61.9238 54.3185 62.219 54.5423C62.5138 54.7662 62.9351 54.7085 63.1589 54.4131C63.1589 54.4131 79.559 32.7763 83.1316 28.0629C83.6623 27.3628 83.9497 26.5083 83.9497 25.6293C83.9497 23.5999 83.9497 19.3224 83.9497 16.9221C83.9497 15.6213 83.3218 14.4006 82.2639 13.6448C79.72 11.8268 74.4207 8.04001 72.3307 6.54652C71.6481 6.05887 70.8303 5.79675 69.9914 5.79675C65.3542 5.79675 47.0988 5.79675 42.747 5.79675C42.0131 5.79675 41.2929 5.99745 40.6647 6.37737C38.3717 7.76447 31.7434 11.7734 28.6552 13.6411C27.4494 14.3704 26.7124 15.678 26.7124 17.0879C26.7124 19.5147 26.7124 23.6455 26.7124 25.6293C26.7124 26.5083 26.9999 27.3628 27.5305 28.0629C31.1031 32.7763 47.5033 54.4131 47.5033 54.4131C47.727 54.7085 48.1483 54.7662 48.4432 54.5423C48.7383 54.3185 48.796 53.8973 48.5723 53.602Z" fill="#FF00E0"/>
<path fill-rule="evenodd" clip-rule="evenodd" d="M47.4936 53.602C47.4936 53.602 31.0934 31.9651 27.5208 27.2517C27.1669 26.7849 26.9758 26.2153 26.9758 25.6293V17.0879C26.9754 16.1478 27.4668 15.2762 28.2708 14.7899L40.2803 7.52618C40.6989 7.27313 41.1789 7.13922 41.6683 7.13922H68.9127C69.4719 7.13922 70.0173 7.31374 70.4724 7.63895L80.4053 14.7372C81.1107 15.2413 81.5293 16.0549 81.5293 16.9221V25.6293C81.5293 26.2153 81.3378 26.7849 80.9839 27.2517C77.4113 31.9651 61.0112 53.602 61.0112 53.602C60.7874 53.8973 60.8451 54.3185 61.1403 54.5423C61.4351 54.7662 61.8564 54.7085 62.0802 54.4131C62.0802 54.4131 78.4803 32.7763 82.0529 28.0629C82.5836 27.3628 82.871 26.5083 82.871 25.6293C82.871 23.5999 82.871 19.3224 82.871 16.9221C82.871 15.6213 82.2431 14.4006 81.1852 13.6448C78.6413 11.8268 73.342 8.04001 71.252 6.54652C70.5694 6.05887 69.7516 5.79675 68.9127 5.79675C64.2758 5.79675 46.0204 5.79675 41.6683 5.79675C40.9344 5.79675 40.2142 5.99745 39.5863 6.37737C37.293 7.76447 30.6647 11.7734 27.5768 13.6411C26.3707 14.3704 25.6337 15.678 25.6341 17.0879C25.6341 19.5147 25.6341 23.6455 25.6341 25.6293C25.6341 26.5083 25.9212 27.3628 26.4518 28.0629C30.0244 32.7763 46.4246 54.4131 46.4246 54.4131C46.6483 54.7085 47.0696 54.7662 47.3645 54.5423C47.6596 54.3185 47.7173 53.8973 47.4936 53.602Z" fill="#00FFEB"/>
<path fill-rule="evenodd" clip-rule="evenodd" d="M47.722 53.8379L27.9341 27.3477C27.7486 27.0994 27.607 26.8238 27.5118 26.5335C27.4162 26.2439 27.3685 25.9385 27.3705 25.6294L27.4172 17.088C27.4198 16.6016 27.551 16.1341 27.7841 15.7253C28.0162 15.3179 28.3527 14.9699 28.7682 14.7208L40.8059 7.50375C41.0176 7.37656 41.245 7.2799 41.4808 7.21512C41.7166 7.15001 41.9611 7.11746 42.2077 7.11813C44.3973 7.12149 50.1065 7.14062 55.8299 7.1386C61.4821 7.13659 67.1481 7.11343 69.4521 7.1084C69.7352 7.10739 70.0149 7.15001 70.2816 7.23425C70.5486 7.31883 70.8028 7.44401 71.0339 7.6078L80.9977 14.6628C81.3643 14.9222 81.6578 15.2609 81.8594 15.6482C82.0616 16.0365 82.1737 16.4718 82.1757 16.9222L82.2237 25.6294C82.2257 25.9395 82.1774 26.2459 82.0818 26.5369C81.9855 26.8282 81.8433 27.1044 81.6571 27.3534L61.8614 53.8379C61.7679 53.9615 61.7923 54.1377 61.9154 54.2313C62.0389 54.3249 62.215 54.3008 62.3086 54.1773L82.4584 27.9616C82.715 27.6273 82.9126 27.2551 83.0471 26.8618C83.1823 26.4678 83.2527 26.0516 83.2551 25.6294L83.303 16.9222C83.3064 16.2885 83.1551 15.674 82.876 15.1246C82.5963 14.5742 82.1861 14.0909 81.6715 13.719L71.7692 6.57812C71.4317 6.33514 71.0604 6.14854 70.6697 6.02167C70.2789 5.89481 69.868 5.82903 69.4521 5.82735C67.1481 5.82232 61.4821 5.79916 55.8299 5.79715C50.1065 5.79513 44.3973 5.81426 42.2077 5.81762C41.8427 5.81862 41.4815 5.8693 41.1333 5.9673C40.7855 6.06564 40.4507 6.21029 40.1391 6.39991L28.1578 13.7103C27.5691 14.0701 27.0945 14.5695 26.7695 15.1528C26.4451 15.7347 26.2673 16.3993 26.271 17.088L26.3176 25.6294C26.3203 26.0526 26.3908 26.4698 26.5266 26.8651C26.6618 27.2595 26.86 27.6323 27.1173 27.9673L47.2752 54.1773C47.3685 54.3008 47.5446 54.3249 47.668 54.2313C47.7914 54.1377 47.8156 53.9615 47.722 53.8379Z" fill="white"/>
<path fill-rule="evenodd" clip-rule="evenodd" d="M43.1448 12.6963L35.4318 17.3614C34.2259 18.091 33.489 19.3983 33.489 20.8082C33.489 22.3886 33.489 24.5889 33.489 25.9065C33.489 26.7855 33.7761 27.64 34.3067 28.3404C36.8667 31.7174 45.9915 43.756 50.5785 49.8075C51.3395 50.8113 52.5263 51.401 53.7854 51.401C55.0449 51.401 56.2317 50.8113 56.9924 49.8075C61.5793 43.756 70.7045 31.7174 73.2641 28.3404C73.7948 27.64 74.0822 26.7855 74.0822 25.9065C74.0822 24.5423 74.0822 22.2315 74.0822 20.6424C74.0822 19.3419 73.4543 18.1212 72.3964 17.3651C70.6113 16.0898 67.5847 13.9267 66.0998 12.8655C65.4172 12.3778 64.5991 12.1157 63.7602 12.1157C60.1665 12.1157 48.6048 12.1157 45.2271 12.1157C44.4929 12.1157 43.7731 12.3164 43.1448 12.6963ZM43.8388 13.8452C44.2577 13.5921 44.7377 13.4582 45.2271 13.4582C48.6048 13.4582 60.1665 13.4582 63.7602 13.4582C64.3197 13.4582 64.8648 13.633 65.32 13.9583C66.8049 15.0191 69.8317 17.1822 71.6165 18.4575C72.3219 18.9616 72.7405 19.7755 72.7405 20.6424V25.9065C72.7405 26.4925 72.549 27.0624 72.1951 27.5289L55.9234 48.9963C55.4163 49.6655 54.625 50.0585 53.7854 50.0585C52.9459 50.0585 52.1546 49.6655 51.6474 48.9963L35.3757 27.5289C35.0222 27.0624 34.8307 26.4925 34.8307 25.9065V20.8082C34.8307 19.8681 35.3217 18.9969 36.1257 18.5106L43.8388 13.8452Z" fill="#00FFEB"/>
<path fill-rule="evenodd" clip-rule="evenodd" d="M44.8219 12.6963L37.1089 17.3614C35.903 18.091 35.1661 19.3983 35.1661 20.8082C35.1661 22.3886 35.1661 24.5889 35.1661 25.9065C35.1661 26.7855 35.4532 27.64 35.9839 28.3404C38.5438 31.7174 47.6687 43.756 52.2556 49.8075C53.0167 50.8113 54.2034 51.401 55.4626 51.401C56.7221 51.401 57.9088 50.8113 58.6695 49.8075C63.2565 43.756 72.3816 31.7174 74.9413 28.3404C75.4719 27.64 75.7594 26.7855 75.7594 25.9065C75.7594 24.5423 75.7594 22.2315 75.7594 20.6424C75.7594 19.3419 75.1314 18.1212 74.0735 17.3651C72.2884 16.0898 69.2619 13.9267 67.777 12.8655C67.0944 12.3778 66.2763 12.1157 65.4374 12.1157C61.8437 12.1157 50.282 12.1157 46.9042 12.1157C46.17 12.1157 45.4502 12.3164 44.8219 12.6963ZM45.5159 13.8452C45.9349 13.5921 46.4149 13.4582 46.9042 13.4582C50.282 13.4582 61.8437 13.4582 65.4374 13.4582C65.9969 13.4582 66.5419 13.633 66.9971 13.9583C68.482 15.0191 71.5089 17.1822 73.2937 18.4575C73.9991 18.9616 74.4177 19.7755 74.4177 20.6424V25.9065C74.4177 26.4925 74.2261 27.0624 73.8723 27.5289L57.6006 48.9963C57.0934 49.6655 56.3021 50.0585 55.4626 50.0585C54.623 50.0585 53.8317 49.6655 53.3246 48.9963L37.0529 27.5289C36.6993 27.0624 36.5078 26.4925 36.5078 25.9065V20.8082C36.5078 19.8681 36.9989 18.9969 37.8029 18.5106L45.5159 13.8452Z" fill="#FF00E0"/>
<path fill-rule="evenodd" clip-rule="evenodd" d="M44.1511 12.6963L36.438 17.3614C35.2322 18.091 34.4953 19.3983 34.4953 20.8082C34.4953 22.3886 34.4953 24.5889 34.4953 25.9065C34.4953 26.7855 34.7824 27.64 35.313 28.3404C37.873 31.7174 46.9978 43.756 51.5847 49.8075C52.3458 50.8113 53.5325 51.401 54.7917 51.401C56.0512 51.401 57.238 50.8113 57.9987 49.8075C62.5856 43.756 71.7108 31.7174 74.2704 28.3404C74.8011 27.64 75.0885 26.7855 75.0885 25.9065C75.0885 24.5423 75.0885 22.2315 75.0885 20.6424C75.0885 19.3419 74.4606 18.1212 73.4027 17.3651C71.6175 16.0898 68.591 13.9267 67.1061 12.8655C66.4235 12.3778 65.6054 12.1157 64.7665 12.1157C61.1728 12.1157 49.6111 12.1157 46.2334 12.1157C45.4992 12.1157 44.7793 12.3164 44.1511 12.6963ZM44.8451 13.8452C45.264 13.5921 45.744 13.4582 46.2334 13.4582C49.6111 13.4582 61.1728 13.4582 64.7665 13.4582C65.326 13.4582 65.8711 13.633 66.3263 13.9583C67.8112 15.0191 70.838 17.1822 72.6228 18.4575C73.3282 18.9616 73.7468 19.7755 73.7468 20.6424V25.9065C73.7468 26.4925 73.5553 27.0624 73.2014 27.5289L56.9297 48.9963C56.4226 49.6655 55.6313 50.0585 54.7917 50.0585C53.9522 50.0585 53.1609 49.6655 52.6537 48.9963L36.382 27.5289C36.0285 27.0624 35.837 26.4925 35.837 25.9065V20.8082C35.837 19.8681 36.328 18.9969 37.132 18.5106L44.8451 13.8452Z" fill="white"/>
</svg>
