<svg width="66" height="11" viewBox="0 0 66 11" fill="none" xmlns="http://www.w3.org/2000/svg">
<path d="M6.12764 0.0611572C6.33487 0.0611572 6.54332 0.0689388 6.7532 0.0842945C6.96289 0.0998549 7.15332 0.143875 7.32409 0.216354C7.49507 0.289038 7.6337 0.398983 7.73977 0.546602C7.84604 0.694222 7.89908 0.899989 7.89908 1.16411C7.89908 1.42311 7.84604 1.62641 7.73977 1.77403C7.6337 1.92165 7.49507 2.0316 7.32409 2.10408C7.15332 2.17656 6.96289 2.22201 6.7532 2.24003C6.54332 2.25825 6.33487 2.26726 6.12764 2.26726H5.3352V9.16565C5.3352 9.3882 5.32885 9.60585 5.31575 9.81816C5.30285 10.0305 5.26005 10.2195 5.18756 10.3853C5.11507 10.5509 4.99856 10.6842 4.83803 10.7854C4.67749 10.8863 4.44958 10.9367 4.15431 10.9367C3.85904 10.9367 3.63113 10.8863 3.4706 10.7854C3.31006 10.6842 3.19355 10.5509 3.12106 10.3853C3.04857 10.2195 3.00578 10.0305 2.99288 9.81816C2.97977 9.60585 2.97342 9.3882 2.97342 9.16565V2.26726H2.18098C1.97376 2.26726 1.7653 2.25825 1.55542 2.24003C1.34574 2.22201 1.1553 2.17656 0.98453 2.10408C0.81355 2.0316 0.674923 1.92165 0.568854 1.77403C0.46258 1.62641 0.409546 1.42311 0.409546 1.16411C0.409546 0.899989 0.46258 0.694222 0.568854 0.546602C0.674923 0.398983 0.81355 0.289038 0.98453 0.216354C1.1553 0.143875 1.34574 0.0998549 1.55542 0.0842945C1.7653 0.0689388 1.97376 0.0611572 2.18098 0.0611572H6.12764Z" fill="black"/>
<path d="M11.1559 3.1385C11.1559 2.64118 11.2286 2.21798 11.3736 1.86828C11.5185 1.51878 11.7036 1.22743 11.9291 0.994437C12.1543 0.761235 12.4029 0.578809 12.6748 0.44675C12.9468 0.314691 13.2109 0.214981 13.4673 0.147621C13.7237 0.0802608 13.9554 0.0389008 14.1627 0.0233403C14.3699 0.00777989 14.5227 0 14.6211 0H14.8853C14.9836 0 15.1363 0.00777989 15.3436 0.0233403C15.5508 0.0389008 15.7813 0.0802608 16.0351 0.147621C16.2888 0.214981 16.5517 0.314691 16.8236 0.44675C17.0955 0.578809 17.3417 0.761235 17.5618 0.994437C17.7819 1.22743 17.9631 1.51878 18.1057 1.86828C18.248 2.21798 18.3192 2.64118 18.3192 3.1385V7.78391C18.3192 8.29658 18.248 8.73166 18.1057 9.08893C17.9631 9.44641 17.7819 9.74411 17.5618 9.98243C17.3417 10.2205 17.0955 10.4083 16.8236 10.5455C16.5517 10.6829 16.2888 10.785 16.0351 10.8524C15.7813 10.9197 15.5508 10.9611 15.3436 10.9767C15.1363 10.9922 14.9836 11 14.8853 11H14.6211C14.5227 11 14.3699 10.9922 14.1627 10.9767C13.9554 10.9611 13.7237 10.9197 13.4673 10.8524C13.2109 10.785 12.9468 10.6829 12.6748 10.5455C12.4029 10.4083 12.1543 10.2205 11.9291 9.98243C11.7036 9.74411 11.5185 9.44641 11.3736 9.08893C11.2286 8.73166 11.1559 8.29658 11.1559 7.78391V3.1385ZM13.7353 8.07914C13.7458 8.27078 13.7898 8.43908 13.8674 8.58404C13.9348 8.71344 14.0372 8.83014 14.1743 8.93354C14.3115 9.03714 14.5071 9.08893 14.761 9.08893C15.0096 9.08893 15.2012 9.03714 15.3358 8.93354C15.4705 8.83014 15.5715 8.71344 15.6388 8.58404C15.7113 8.43908 15.7553 8.27078 15.7709 8.07914V3.01422C15.7553 2.8277 15.7113 2.6594 15.6388 2.50912C15.5715 2.38484 15.4705 2.26957 15.3358 2.16352C15.2012 2.05725 15.0096 2.00423 14.761 2.00423C14.5071 2.00423 14.3115 2.05725 14.1743 2.16352C14.0372 2.26957 13.9348 2.38484 13.8674 2.50912C13.7898 2.6594 13.7458 2.8277 13.7353 3.01422V8.07914Z" fill="black"/>
<path d="M28.6151 7.72164H28.8014V1.2741C28.8014 1.10826 28.8119 0.951627 28.8325 0.804008C28.8532 0.656388 28.8987 0.528222 28.9685 0.419503C29.0385 0.310785 29.1421 0.223972 29.2793 0.159273C29.4165 0.0945745 29.6043 0.0622253 29.8427 0.0622253C30.1068 0.0622253 30.3153 0.0945745 30.468 0.159273C30.6208 0.223972 30.736 0.310785 30.8137 0.419503C30.8915 0.528222 30.9406 0.656388 30.9613 0.804008C30.982 0.951627 30.9924 1.10826 30.9924 1.2741V9.15116C30.9924 9.37903 30.9859 9.59913 30.973 9.81145C30.9601 10.0238 30.9187 10.2142 30.8487 10.3825C30.7788 10.5508 30.6648 10.6853 30.5069 10.7864C30.3488 10.8874 30.1275 10.9377 29.8427 10.9377H28.817C28.5735 10.9377 28.3704 10.8898 28.2072 10.7942C28.044 10.6984 27.908 10.5817 27.7993 10.4445C27.6906 10.3073 27.6037 10.1636 27.539 10.0133C27.4743 9.86325 27.4237 9.73631 27.3875 9.63272L25.0411 3.27832H24.8548V9.72587C24.8548 9.89171 24.8443 10.0483 24.8236 10.196C24.8029 10.3436 24.7577 10.4717 24.6877 10.5805C24.6178 10.6892 24.5142 10.776 24.3768 10.8407C24.2396 10.9054 24.0519 10.9377 23.8137 10.9377C23.5442 10.9377 23.3319 10.9054 23.1765 10.8407C23.0213 10.776 22.9046 10.6892 22.827 10.5805C22.7493 10.4717 22.7 10.3436 22.6793 10.196C22.6586 10.0483 22.6482 9.89171 22.6482 9.72587V1.84881C22.6482 1.62625 22.6547 1.40738 22.6676 1.19241C22.6805 0.977425 22.7233 0.785991 22.7958 0.617488C22.8683 0.44919 22.9836 0.314673 23.1417 0.21353C23.2996 0.112592 23.5236 0.0622253 23.8137 0.0622253H24.8392C25.0982 0.0622253 25.3091 0.112592 25.4723 0.21353C25.6355 0.314673 25.7688 0.424621 25.8724 0.543781C25.9865 0.68362 26.077 0.844139 26.1444 1.02534L28.6151 7.72164Z" fill="black"/>
<path d="M35.7565 1.84881C35.7565 1.62625 35.7681 1.40861 35.7915 1.19629C35.8148 0.983977 35.8691 0.793566 35.9547 0.625267C36.0401 0.456969 36.1683 0.321022 36.3392 0.217422C36.51 0.114027 36.7457 0.0622253 37.0461 0.0622253C37.3467 0.0622253 37.5822 0.114027 37.7531 0.217422C37.9241 0.321022 38.0523 0.456969 38.1377 0.625267C38.2233 0.793566 38.2776 0.983977 38.3009 1.19629C38.3242 1.40861 38.3359 1.62625 38.3359 1.84881V9.15116C38.3359 9.37903 38.3255 9.59913 38.3048 9.81145C38.2841 10.0238 38.2311 10.2142 38.1455 10.3825C38.0601 10.5508 37.9307 10.6853 37.757 10.7864C37.5836 10.8874 37.3467 10.9377 37.0461 10.9377C36.7457 10.9377 36.51 10.8874 36.3392 10.7864C36.1683 10.6853 36.0401 10.5508 35.9547 10.3825C35.8691 10.2142 35.8148 10.0238 35.7915 9.81145C35.7681 9.59913 35.7565 9.37903 35.7565 9.15116V1.84881Z" fill="black"/>
<path d="M43.1156 1.83325C43.1156 1.61069 43.1273 1.39305 43.1506 1.18073C43.1738 0.968415 43.2282 0.77944 43.3136 0.613599C43.3992 0.447962 43.5274 0.314672 43.6982 0.21353C43.8691 0.112592 44.1048 0.0622253 44.4052 0.0622253C44.7056 0.0622253 44.9425 0.112592 45.1162 0.21353C45.2896 0.314672 45.4192 0.447962 45.5046 0.613599C45.59 0.77944 45.6432 0.968415 45.6639 1.18073C45.6846 1.39305 45.695 1.61069 45.695 1.83325V7.95485C45.7104 8.18272 45.7571 8.3846 45.8349 8.56068C45.8658 8.63848 45.9074 8.71342 45.9592 8.7861C46.011 8.85858 46.0718 8.92328 46.1416 8.9802C46.2117 9.03711 46.2944 9.08257 46.3902 9.11615C46.4861 9.14972 46.5962 9.16671 46.7205 9.16671C46.8448 9.16671 46.9562 9.14972 47.0545 9.11615C47.153 9.08257 47.2371 9.03711 47.3072 8.9802C47.377 8.92328 47.4378 8.85858 47.4896 8.7861C47.5414 8.71342 47.5828 8.63848 47.6139 8.56068C47.6917 8.3846 47.7357 8.18272 47.746 7.95485V1.83325C47.746 1.61069 47.7564 1.39305 47.7771 1.18073C47.7978 0.968415 47.8508 0.77944 47.9364 0.613599C48.0218 0.447962 48.15 0.314672 48.321 0.21353C48.4919 0.112592 48.7301 0.0622253 49.0358 0.0622253C49.3362 0.0622253 49.5719 0.112592 49.7427 0.21353C49.9136 0.314672 50.0418 0.447962 50.1272 0.613599C50.2128 0.77944 50.2671 0.968415 50.2904 1.18073C50.3137 1.39305 50.3254 1.61069 50.3254 1.83325V7.75276C50.3254 8.29144 50.2386 8.76276 50.0652 9.16671C49.8917 9.57067 49.6456 9.9085 49.327 10.1804C49.0086 10.4523 48.6279 10.6568 48.185 10.7942C47.7421 10.9314 47.2539 11 46.7205 11C46.1818 11 45.6924 10.9287 45.2521 10.7864C44.8119 10.6439 44.4325 10.4355 44.1138 10.1609C43.7954 9.88659 43.5493 9.54733 43.3759 9.14337C43.2022 8.73942 43.1156 8.27588 43.1156 7.75276V1.83325Z" fill="black"/>
<path d="M59.8754 8.42084C59.7253 8.42084 59.5971 8.39238 59.4908 8.33546C59.3847 8.27854 59.2928 8.20586 59.215 8.11782C59.1374 8.02978 59.0712 7.93151 59.017 7.82279C58.9625 7.71387 58.9173 7.60781 58.881 7.50421L57.4049 3.2472H57.2028V9.72587C57.2028 9.89171 57.1925 10.0471 57.1718 10.1921C57.1509 10.337 57.1057 10.4652 57.0359 10.5766C56.9658 10.688 56.8622 10.776 56.725 10.8407C56.5878 10.9054 56.4001 10.9377 56.1617 10.9377C55.8925 10.9377 55.6801 10.9054 55.5247 10.8407C55.3693 10.776 55.2528 10.688 55.175 10.5766C55.0974 10.4652 55.0482 10.337 55.0275 10.1921C55.0066 10.0471 54.9964 9.89171 54.9964 9.72587V1.83325C54.9964 1.6107 55.0027 1.39305 55.0159 1.18073C55.0288 0.968415 55.0715 0.77944 55.144 0.613599C55.2165 0.447962 55.3318 0.314673 55.4897 0.21353C55.6478 0.112592 55.8718 0.0622253 56.1617 0.0622253H57.2183C57.3944 0.0622253 57.5433 0.0685743 57.6651 0.0814731C57.7868 0.0945766 57.8994 0.138594 58.003 0.21353C58.1066 0.28867 58.209 0.409059 58.3099 0.5749C58.4109 0.740537 58.5223 0.974968 58.6441 1.27799C58.7657 1.5808 58.9068 1.96674 59.0674 2.4354C59.2281 2.90405 59.4249 3.4802 59.6579 4.16383L59.8598 4.78523H60.0463L60.2949 4.00843C60.5073 3.35592 60.6887 2.80434 60.8388 2.3537C60.9891 1.90327 61.1212 1.53166 61.235 1.23909C61.3491 0.946509 61.4512 0.721088 61.542 0.563232C61.6327 0.40517 61.7285 0.28867 61.8294 0.21353C61.9304 0.138594 62.0406 0.0945766 62.1595 0.0814731C62.2787 0.0685743 62.4237 0.0622253 62.5947 0.0622253H63.7291C64.019 0.0622253 64.243 0.112592 64.4011 0.21353C64.559 0.314673 64.6743 0.447962 64.7468 0.613599C64.8192 0.77944 64.862 0.968415 64.8749 1.18073C64.8878 1.39305 64.8944 1.6107 64.8944 1.83325V9.72587C64.8944 9.89171 64.8839 10.0471 64.8633 10.1921C64.8426 10.337 64.7934 10.4652 64.7156 10.5766C64.638 10.688 64.5215 10.776 64.3661 10.8407C64.2107 10.9054 63.9983 10.9377 63.7291 10.9377C63.4907 10.9377 63.3029 10.9054 63.1658 10.8407C63.0284 10.776 62.925 10.688 62.8549 10.5766C62.7851 10.4652 62.7396 10.337 62.719 10.1921C62.6983 10.0471 62.6878 9.89171 62.6878 9.72587V3.2472H62.4704L61.0098 7.50421C60.9684 7.60781 60.9217 7.71387 60.8699 7.82279C60.8181 7.93151 60.7534 8.02978 60.6756 8.11782C60.598 8.20586 60.5073 8.27854 60.4037 8.33546C60.3003 8.39238 60.1758 8.42084 60.0308 8.42084H59.8754Z" fill="black"/>
</svg>
